<svg xmlns="http://www.w3.org/2000/svg" width="1024" height="1024" viewBox="0 0 1024 1024"><path fill="#fff" d="M0 0h1024v1024H0z"/><path fill="#da6608" d="M355.559 253.991c17.774-.403 36.403-.134 54.229-.137l101.644.029 98.383.005c17.472.006 36.07-.306 53.463.131 13.324 12.444 71.012 82.764 79.089 86.475 2.645 1.215 6.169.36 8.803-.424 5.781-1.72 11.37-4.299 16.956-6.564l27.324-11.069 77.794-30.975c13.658-5.424 29.001-12.181 42.774-16.835.44 19.767.063 40.798.068 60.691l-.063 119.19-143.173-.043c-25.074.006-51.14.408-76.1-.041-6.149-4.026-11.542-10.994-16.508-16.459a1629 1629 0 0 1-29.543-32.945c-5.802-6.641-11.881-13.415-17.628-19.999-7.912-9.064-11.363-7.666-22.476-7.565-3.097.028-6.511.076-9.649.092l-67.884-.047c-9.629.009-31.841.661-40.315-.993a44.53 44.53 0 0 1-20.849-9.994c-12.245-10.682-17.603-26.548-18.648-42.386 61.689.357 124.172-.713 185.748.106 3.292 3.174 7.929 8.992 11.151 12.626l20.195 22.368c3.628 4.026 7.266 8.354 11.302 11.902 4.131 3.529 12.146 1.239 12.166-4.731.02-5.926-4.838-10.573-8.543-14.74-6.442-7.248-12.946-14.467-19.428-21.689-4.334-4.933-15.531-18.68-20.405-21.66-10.763-.785-26.15-.233-37.391-.226l-68.619.006-64.263-.015c-12.098-.006-24.401-.298-36.471.376-3.848.215-6.013 2.15-8.793 4.658-8.954 8.079-17.416 16.748-26.28 24.935a10136 10136 0 0 0-83.193 77.386c-9.61 9.027-19.297 17.971-28.941 26.954-1.653 1.772-5.533 5.202-5.951 7.579-1.455 8.275 6.992 12.474 13.272 7.423 4.888-3.931 9.031-8.206 13.465-12.377l24.45-22.913 59.894-55.951c11.919-11.113 23.928-22.88 36.254-33.491 2.034 18.208 8.157 28.593 19.531 42.492-2.584 2.817-7.311 7.052-10.189 9.842l-22.63 21.965-68.598 66.499-45.63 44.461c-5.094 4.937-18.725 18.811-24.211 22.02-11.573.914-32.903.32-45.03.313l-85.009-.244c15.833-23.514 34.84-49.168 51.515-72.281l63.194-88.48 61.373-85.89c8.843-12.301 19.243-27.902 28.374-39.36"/><path fill="#da6608" d="M741.097 499.44c4.968-.34 12.236-.128 17.356-.117l31.168.073c27.216.053 54.775-.303 81.932.065-7.089 10.486-15.276 21.508-22.617 31.918l-69.209 97.231-79.408 111.949c-9.308 13.001-18.278 26.362-27.864 39.187-.998 1.337-5.147 6.6-6.451 6.744-5.853.642-13.638.434-19.459.431l-38.608-.004-182.985-.007c-7.261-.003-63.527 1.104-66.808-.99-4.717-3.011-11.192-11.582-15.09-15.904l-40.594-45.498c-6.447-7.272-17.649-21.302-25-26.31-2.515-1.714-41.118 14.947-44.89 16.472l-72.862 29.248c-14.339 5.717-29.503 12.095-43.993 17.186.337-12.622.057-26.249.048-38.977l-.083-87.285c-.02-16.257-.334-33.623.116-49.808 13.932-.438 29.143-.188 43.173-.183l72.833.035 58.45-.057c10.565-.013 22.904-.323 33.265.158 5.937 3.827 21.045 21.483 26.593 27.599a2441 2441 0 0 0 36.61 39.582c2.027 2.285 7.396 8.83 9.968 9.482 6.462 1.637 17.624.778 24.497.813 17.543.229 35.021-.243 52.571-.053 26.065.282 56.102-5.646 77.113 13.788 12.036 11.132 14.947 24.092 16.735 39.272-19.502.373-40.037.08-59.593.096l-128.177-.002c-12.924-12.517-24.732-27.752-37.266-40.758-4.011-4.163-9.648-10.599-15.49-4.223a8.4 8.4 0 0 0-2.216 6.399c.383 4.911 8.92 12.893 12.398 16.755q9.93 11.172 20.1 22.127c4.304 4.652 8.51 10.055 13.201 14.24 1.729 1.542 3.681 2.321 5.987 2.345 13.394.143 27.029.059 40.403.039l79.806-.05 60.377.006c8.705-.001 24.927.456 32.946-.562 5.079-3.662 16.022-14.655 20.812-19.277l35.421-34.074 59.312-56.375c8.566-8.164 17.446-16.216 25.929-24.473 1.637-1.75 4.228-4.819 4.573-7.269 1.118-7.938-7.278-11.506-13.131-6.843-4.951 3.944-8.807 8.008-13.095 12.217a1566 1566 0 0 1-19.173 18.529l-71.588 67.895c-7.874 7.521-21.898 22.327-30.413 27.985-5.796-20.841-6.054-25.971-20.523-43.91 11.521-8.17 31.688-29.445 42.564-40.217a11840 11840 0 0 1 87.557-85.761l25.068-24.492c5.251-5.13 11.963-12.002 17.704-16.387"/><path fill="#12599a" d="M511.787 410.079c10.109 15.948 20.368 33.756 30.171 50.048l52.715 87.294c7.032 11.661 14.696 25.109 21.889 36.456-34.535.421-69.57.132-104.136.131l-105.024-.055c.787-1.312 4.723-8.276 5.23-8.91l1.997-3.483 62.235-103.412c11.053-18.481 23.396-40.145 34.923-58.069"/><path fill="#0a4f94" d="m412.632 575.043 1.997-3.483c2.262 1.39 1.738.669 2.911 2.814l-.146 1.326c-2.062 1.365-2.674.525-4.762-.657"/></svg>